# xmcd
#
# Track frame offsets:
#	150
#	29081
#	60921
#	98745
#	139756
#	186970
#	247892
#	276715
#	308839
#
# Disc length: 4574 seconds
#
# Revision: 0
# Processed by: cddbd v1.5.2PL0 Copyright (c) Steve Scherf et al.
# Submitted via: audiograbber 1.83.01
#
DISCID=7f11dc09
DTITLE=Grateful Dead - 93-03-31 Nassau Veterans Memorial Coliseum, Uniondale NY
DYEAR=1900
DGENRE=
TTITLE0=Cold Rain and Snow
TTITLE1=Wang Dang Doodle
TTITLE2=Althea
TTITLE3=It's All Over Now
TTITLE4=Row Jimmy
TTITLE5=Let It Grow
TTITLE6=Cumberland Blues
TTITLE7=Truckin'
TTITLE8=Lazy River Road
EXTD=
EXTT0=
EXTT1=
EXTT2=
EXTT3=
EXTT4=
EXTT5=
EXTT6=
EXTT7=
EXTT8=
PLAYORDER=
